name analog
datacolumns 19
datarows 27
range 0.0 0.013000000000000001
endheader
time	ground_force_vx	ground_force_vy	ground_force_vz	ground_force_px	ground_force_py	ground_force_pz	l_ground_force_vx	l_ground_force_vy	l_ground_force_vz	l_ground_force_px	l_ground_force_py	l_ground_force_pz	ground_torque_x	ground_torque_y	ground_torque_z	l_ground_torque_x	l_ground_torque_y	l_ground_torque_z
0.0	-0.0	-0.0	-0.0	-0.7197784781455994	13.643040657043455	-179.83001708984375	-2.0793025493621826	-14.435218811035156	-324.1438903808594	-0.0	-0.0	-0.0	-0.0	-0.0	-0.0	111450.6328125	-28966.09375	-459.3663635253906
0.0005	-0.0	-0.0	-0.0	-0.4123643040657043	13.910264015197754	-180.318115234375	-1.6577560901641846	-14.16453742980957	-325.3646240234375	-0.0	-0.0	-0.0	-0.0	-0.0	-0.0	111424.1015625	-29255.041015625	-440.45843505859375
0.001	-0.0	-0.0	-0.0	-1.237558364868164	13.664765357971191	-180.60769653320312	-1.4089069366455078	-14.330607414245604	-325.2998046875	-0.0	-0.0	-0.0	-0.0	-0.0	-0.0	111515.78125	-29139.568359375	-410.6337890625
0.0015	-0.0	-0.0	-0.0	-0.7305903434753418	13.737070083618164	-179.17269897460938	-1.2318743467330933	-14.479740142822266	-324.3222045898437	-0.0	-0.0	-0.0	-0.0	-0.0	-0.0	111774.09375	-29145.01171875	-360.5224304199219
0.002	-0.0	-0.0	-0.0	-0.8868390321731567	13.698125839233398	-178.93060302734375	-1.447340488433838	-14.275482177734377	-326.2899169921875	-0.0	-0.0	-0.0	-0.0	-0.0	-0.0	111773.828125	-29450.640625	-402.8548278808594
0.0025	-0.0	-0.0	-0.0	-1.2489471435546875	13.303346633911133	-179.4154052734375	-1.0879110097885132	-14.312734603881836	-325.8687744140625	-0.0	-0.0	-0.0	-0.0	-0.0	-0.0	112196.078125	-29779.943359375	-194.86819458007807
0.003	-0.0	-0.0	-0.0	-1.3480231761932373	13.402555465698242	-176.72071838378906	-1.0454020500183103	-14.1918363571167	-326.34625244140625	-0.0	-0.0	-0.0	-0.0	-0.0	-0.0	112304.203125	-29642.75	-123.0043716430664
0.0035	-0.0	-0.0	-0.0	-0.6197735071182251	13.519676208496094	-177.6309051513672	-0.7702414989471436	-14.16795253753662	-328.0917053222656	-0.0	-0.0	-0.0	-0.0	-0.0	-0.0	112144.59375	-30095.25390625	-103.97270965576172
0.004	-0.0	-0.0	-0.0	-1.192476511001587	13.36956024169922	-176.31289672851562	-0.9516479969024658	-14.424530982971191	-328.7897644042969	-0.0	-0.0	-0.0	-0.0	-0.0	-0.0	112621.4375	-30329.701171875	-63.66872787475586
0.0045000000000000005	-0.0	-0.0	-0.0	-0.6201351284980774	13.30869483947754	-177.4083251953125	-0.5566556453704834	-14.372150421142578	-327.6155090332031	-0.0	-0.0	-0.0	-0.0	-0.0	-0.0	112683.765625	-30218.216796875	-2.747490882873535
0.005	-0.0	-0.0	-0.0	-0.5068948268890381	13.337115287780762	-177.890380859375	-0.6246285438537598	-14.071375846862791	-328.91522216796875	-0.0	-0.0	-0.0	-0.0	-0.0	-0.0	112779.0625	-30705.513671875	-74.04882049560547
0.0055	-0.0	-0.0	-0.0	-0.7293240427970886	13.27261734008789	-174.95211791992188	-0.2661323547363281	-13.944496154785156	-328.9008178710937	-0.0	-0.0	-0.0	-0.0	-0.0	-0.0	112972.6484375	-30487.9609375	76.91487884521484
0.006	-0.0	-0.0	-0.0	-0.4534070789813995	13.102169036865234	-175.0643768310547	-0.3516161441802978	-14.043148040771484	-328.327392578125	-0.0	-0.0	-0.0	-0.0	-0.0	-0.0	113215.59375	-30769.443359375	114.83912658691406
0.006500000000000001	-0.0	-0.0	-0.0	-0.5317522287368774	12.920400619506836	-174.4847869873047	0.2059713304042816	-13.891880989074709	-329.7997436523437	-0.0	-0.0	-0.0	-0.0	-0.0	-0.0	113055.0703125	-30835.75390625	255.0712890625
0.007	-0.0	-0.0	-0.0	-0.5638851523399353	13.105510711669922	-172.32533264160156	0.2060265243053436	-13.892101287841797	-330.29742431640625	-0.0	-0.0	-0.0	-0.0	-0.0	-0.0	113253.5234375	-31009.994140625	125.80768585205078
0.0075	-0.0	-0.0	-0.0	-0.0511762499809265	13.041712760925291	-173.5126495361328	0.5609468221664429	-14.01193904876709	-330.29742431640625	-0.0	-0.0	-0.0	-0.0	-0.0	-0.0	113615.6171875	-31236.423828125	461.87353515625
0.008	-0.0	-0.0	-0.0	-0.2071859538555145	13.257516860961914	-173.42288208007812	0.6809393167495728	-14.16254997253418	-331.8169250488281	-0.0	-0.0	-0.0	-0.0	-0.0	-0.0	113883.375	-31270.599609375	489.0853271484375
0.0085	-0.0	-0.0	-0.0	-0.0343157351016998	12.923908233642578	-170.9390869140625	0.5875674486160278	-14.599461555480955	-332.0341186523437	-0.0	-0.0	-0.0	-0.0	-0.0	-0.0	113955.9140625	-31667.1171875	570.7277221679688
0.009000000000000001	-0.0	-0.0	-0.0	0.168362557888031	12.868675231933594	-170.82467651367188	1.006769776344299	-14.573078155517578	-331.2312316894531	-0.0	-0.0	-0.0	-0.0	-0.0	-0.0	113972.171875	-31991.564453125	679.97998046875
0.0095	-0.0	-0.0	-0.0	0.7472860813140869	12.418063163757324	-171.17759704589844	1.062652587890625	-14.661399841308594	-332.7488708496094	-0.0	-0.0	-0.0	-0.0	-0.0	-0.0	114226.5	-32122.09765625	759.2455444335938
0.01	-0.0	-0.0	-0.0	0.8609773516654968	12.894892692565918	-170.3477020263672	1.3290164470672607	-14.691932678222656	-332.98291015625	-0.0	-0.0	-0.0	-0.0	-0.0	-0.0	114136.6015625	-32184.611328125	787.3374633789062
0.0105	-0.0	-0.0	-0.0	1.2527862787246704	12.565468788146973	-170.22512817382812	1.4775267839431765	-15.1319580078125	-334.2467041015625	-0.0	-0.0	-0.0	-0.0	-0.0	-0.0	114161.8359375	-32330.669921875	847.2466430664062
0.011	-0.0	-0.0	-0.0	1.4291212558746338	12.327370643615724	-168.568359375	1.6272404193878174	-15.457603454589844	-334.0285949707031	-0.0	-0.0	-0.0	-0.0	-0.0	-0.0	114156.0546875	-32672.51953125	1154.568115234375
0.0115	-0.0	-0.0	-0.0	2.1425726413726807	12.359922409057615	-168.0039520263672	1.8337171077728271	-15.39813232421875	-333.4440612792969	-0.0	-0.0	-0.0	-0.0	-0.0	-0.0	114197.71875	-32758.544921875	1164.7818603515625
0.012	-0.0	-0.0	-0.0	2.5897538661956787	12.120410919189451	-169.5316162109375	1.7733278274536133	-15.192214012145996	-333.20587158203125	-0.0	-0.0	-0.0	-0.0	-0.0	-0.0	114032.390625	-33034.234375	1143.9171142578125
0.0125	-0.0	-0.0	-0.0	2.6751585006713867	12.774971961975098	-167.04953002929688	1.9816882610321045	-15.279651641845703	-333.67352294921875	-0.0	-0.0	-0.0	-0.0	-0.0	-0.0	114190.8828125	-33352.75390625	1144.3770751953125
0.013000000000000001	-0.0	-0.0	-0.0	3.0331573486328125	12.358799934387209	-168.70350646972656	2.1001415252685547	-15.456295013427734	-333.3202209472656	-0.0	-0.0	-0.0	-0.0	-0.0	-0.0	114420.9296875	-33305.76953125	1084.9761962890625
